<svg width="24" height="24" viewBox="0 0 24 24" fill="none" xmlns="http://www.w3.org/2000/svg">
<g id="Icon / Right">
<path id="Union" fill-rule="evenodd" clip-rule="evenodd" d="M19.7545 12.6564C19.9074 12.4807 20 12.2512 20 12C20 11.9964 20 11.9928 19.9999 11.9892C19.9973 11.7437 19.9063 11.5195 19.7572 11.3468L13.7593 4.34923C13.3998 3.9299 12.7685 3.88134 12.3492 4.24076C11.9299 4.60018 11.8813 5.23148 12.2407 5.65081L16.8258 11L5 11C4.44772 11 4 11.4477 4 12C4 12.5523 4.44772 13 5 13L16.8258 13L12.2407 18.3492C11.8813 18.7686 11.9299 19.3999 12.3492 19.7593C12.7685 20.1187 13.3998 20.0701 13.7593 19.6508L19.7545 12.6564Z" fill="#FF0025"/>
</g>
</svg>
